<svg width="256" height="256" viewBox="0 0 256 256" fill="none" xmlns="http://www.w3.org/2000/svg">
  <rect width="256" height="256" rx="56" fill="#000"/>
  <defs>
    <linearGradient id="g" x1="44" y1="44" x2="212" y2="212" gradientUnits="userSpaceOnUse">
      <stop stop-color="#7c6cf2"/>
      <stop offset="1" stop-color="#ff7bbd"/>
    </linearGradient>
  </defs>
  <!-- Crescent -->
  <path d="M184 196c-49 0-88.7-39.7-88.7-88.7 0-19.6 6.2-37.7 16.7-52.5C82 61.3 56 92.3 56 129.1 56 170.6 89.4 204 130.9 204c20.1 0 38.6-6.7 53.4-18z" fill="url(#g)"/>
  <!-- Stars -->
  <g fill="#ffd966">
    <path d="M176 64l5 15 15 5-15 5-5 15-5-15-15-5 15-5 5-15z"/>
    <path d="M152 116l3 9 9 3-9 3-3 9-3-9-9-3 9-3 3-9z"/>
    <path d="M204 124l2 7 7 2-7 2-2 7-2-7-7-2 7-2 2-7z"/>
    <path d="M132 152l2 6 6 2-6 2-2 6-2-6-6-2 6-2 2-6z"/>
  </g>
</svg>
