<svg width="256" height="256" viewBox="0 0 256 256" fill="none" xmlns="http://www.w3.org/2000/svg">
  <!-- Black background -->
  <rect width="256" height="256" rx="56" fill="#000000"/>
  
  <!-- Crescent Moon with gradient -->
  <defs>
    <linearGradient id="moonGradient" x1="0%" y1="0%" x2="0%" y2="100%">
      <stop offset="0%" stop-color="#8B5CF6"/>
      <stop offset="50%" stop-color="#EC4899"/>
      <stop offset="100%" stop-color="#F472B6"/>
    </linearGradient>
  </defs>
  
  <!-- Crescent Moon -->
  <path d="M80 128c0-26.5 21.5-48 48-48s48 21.5 48 48-21.5 48-48 48-48-21.5-48-48z" fill="url(#moonGradient)"/>
  <path d="M128 80c-26.5 0-48 21.5-48 48s21.5 48 48 48c26.5 0 48-21.5 48-48s-21.5-48-48-48z" fill="#000000"/>
  
  <!-- Four Stars -->
  <g fill="#FFFFFF">
    <!-- Largest star (top right) -->
    <path d="M200 60l3 9 9 3-9 3-3 9-3-9-9-3 9-3 3-9z"/>
    <!-- Medium star (below largest) -->
    <path d="M180 100l2.5 7.5 7.5 2.5-7.5 2.5-2.5 7.5-2.5-7.5-7.5-2.5 7.5-2.5 2.5-7.5z"/>
    <!-- Small star (near moon curve) -->
    <path d="M160 140l2 6 6 2-6 2-2 6-2-6-6-2 6-2 2-6z"/>
    <!-- Smallest star (bottom right) -->
    <path d="M190 170l1.5 4.5 4.5 1.5-4.5 1.5-1.5 4.5-1.5-4.5-4.5-1.5 4.5-1.5 1.5-4.5z"/>
  </g>
</svg>